<?xml version="1.0" encoding="UTF-8" standalone="no"?>
<!-- Created with Inkscape (http://www.inkscape.org/) -->

<svg
   xmlns:dc="http://purl.org/dc/elements/1.1/"
   xmlns:cc="http://creativecommons.org/ns#"
   xmlns:rdf="http://www.w3.org/1999/02/22-rdf-syntax-ns#"
   xmlns:svg="http://www.w3.org/2000/svg"
   xmlns="http://www.w3.org/2000/svg"
   xmlns:sodipodi="http://sodipodi.sourceforge.net/DTD/sodipodi-0.dtd"
   xmlns:inkscape="http://www.inkscape.org/namespaces/inkscape"
   width="744.09448819"
   height="1052.3622047"
   id="svg2"
   version="1.1"
   inkscape:version="0.48.3.1 r9886"
   sodipodi:docname="New document 1">
  <defs
     id="defs4" />
  <sodipodi:namedview
     id="base"
     pagecolor="#ffffff"
     bordercolor="#666666"
     borderopacity="1.0"
     inkscape:pageopacity="0.0"
     inkscape:pageshadow="2"
     inkscape:zoom="0.35"
     inkscape:cx="-127.85714"
     inkscape:cy="520"
     inkscape:document-units="px"
     inkscape:current-layer="layer1"
     showgrid="false"
     inkscape:window-width="1048"
     inkscape:window-height="621"
     inkscape:window-x="506"
     inkscape:window-y="291"
     inkscape:window-maximized="0" />
  <metadata
     id="metadata7">
    <rdf:RDF>
      <cc:Work
         rdf:about="">
        <dc:format>image/svg+xml</dc:format>
        <dc:type
           rdf:resource="http://purl.org/dc/dcmitype/StillImage" />
        <dc:title></dc:title>
      </cc:Work>
    </rdf:RDF>
  </metadata>
  <g
     inkscape:label="Layer 1"
     inkscape:groupmode="layer"
     id="layer1">
    <path
       sodipodi:type="arc"
       style="fill:#b3b3b3;fill-rule:evenodd;stroke:#000000;stroke-width:4;stroke-linecap:butt;stroke-linejoin:miter;stroke-opacity:1;opacity:0.97999999999999998;stroke-miterlimit:4;stroke-dasharray:none"
       id="path2985"
       sodipodi:cx="282.85715"
       sodipodi:cy="379.50504"
       sodipodi:rx="54.285713"
       sodipodi:ry="35.714287"
       d="m 337.14286,379.50504 a 54.285713,35.714287 0 1 1 -108.57143,0 54.285713,35.714287 0 1 1 108.57143,0 z" />
    <path
       sodipodi:type="arc"
       style="opacity:0.98000003999999996;fill:#b3b3b3;stroke-width:4;stroke-miterlimit:4;stroke-dasharray:none;stroke:#000000;stroke-opacity:1"
       id="path3755"
       sodipodi:cx="454.28571"
       sodipodi:cy="279.50504"
       sodipodi:rx="57.142857"
       sodipodi:ry="41.42857"
       d="m 511.42856,279.50504 a 57.142857,41.42857 0 1 1 -114.28571,0 57.142857,41.42857 0 1 1 114.28571,0 z" />
    <path
       sodipodi:type="arc"
       style="opacity:0.98000004;fill:#b3b3b3;stroke:#000000;stroke-width:4;stroke-miterlimit:4;stroke-opacity:1;stroke-dasharray:none"
       id="path3757"
       sodipodi:cx="342.85715"
       sodipodi:cy="603.79077"
       sodipodi:rx="68.571426"
       sodipodi:ry="34.285713"
       d="m 411.42857,603.79077 a 68.571426,34.285713 0 1 1 -137.14285,0 68.571426,34.285713 0 1 1 137.14285,0 z"
       transform="translate(220,-242.85714)" />
    <path
       sodipodi:type="arc"
       style="opacity:0.98000003999999996;fill:#b3b3b3;stroke-width:4;stroke-miterlimit:4;stroke-dasharray:none;stroke:#000000;stroke-opacity:1"
       id="path3759"
       sodipodi:cx="322.85715"
       sodipodi:cy="179.50504"
       sodipodi:rx="51.42857"
       sodipodi:ry="52.857143"
       d="m 374.28572,179.50504 a 51.42857,52.857143 0 1 1 -102.85714,0 51.42857,52.857143 0 1 1 102.85714,0 z" />
    <path
       sodipodi:type="arc"
       style="opacity:0.98000003999999996;fill:#b3b3b3;stroke-width:4;stroke-miterlimit:4;stroke-dasharray:none;stroke:#000000;stroke-opacity:1"
       id="path3761"
       sodipodi:cx="117.14286"
       sodipodi:cy="305.21933"
       sodipodi:rx="17.142857"
       sodipodi:ry="55.714287"
       d="m 134.28572,305.21933 a 17.142857,55.714287 0 1 1 -34.28572,0 17.142857,55.714287 0 1 1 34.28572,0 z" />
    <path
       sodipodi:type="arc"
       style="opacity:0.98000004;fill:#b3b3b3;stroke:#000000;stroke-width:4;stroke-miterlimit:4;stroke-opacity:1;stroke-dasharray:none"
       id="path3763"
       sodipodi:cx="147.14285"
       sodipodi:cy="522.36218"
       sodipodi:rx="64.285713"
       sodipodi:ry="30"
       d="m 211.42857,522.36218 a 64.285713,30 0 1 1 -128.57143,0 64.285713,30 0 1 1 128.57143,0 z"
       transform="translate(0,-48.571429)" />
    <path
       sodipodi:type="arc"
       style="opacity:0.98000003999999996;fill:#b3b3b3;stroke-width:4;stroke-miterlimit:4;stroke-dasharray:none;stroke:#000000;stroke-opacity:1"
       id="path3765"
       sodipodi:cx="420"
       sodipodi:cy="475.21933"
       sodipodi:rx="51.42857"
       sodipodi:ry="40"
       d="m 471.42857,475.21933 a 51.42857,40 0 1 1 -102.85714,0 51.42857,40 0 1 1 102.85714,0 z" />
    <path
       sodipodi:type="arc"
       style="opacity:0.98000003999999996;fill:#b3b3b3;stroke-width:4;stroke-miterlimit:4;stroke-dasharray:none;stroke:#000000;stroke-opacity:1"
       id="path3767"
       sodipodi:cx="507.14285"
       sodipodi:cy="156.6479"
       sodipodi:rx="55.714287"
       sodipodi:ry="44.285713"
       d="m 562.85714,156.6479 a 55.714287,44.285713 0 1 1 -111.42857,0 55.714287,44.285713 0 1 1 111.42857,0 z" />
    <path
       sodipodi:type="arc"
       style="opacity:0.98000003999999996;fill:#b3b3b3;stroke-width:4;stroke-miterlimit:4;stroke-dasharray:none;stroke:#000000;stroke-opacity:1"
       id="path3769"
       sodipodi:cx="137.14285"
       sodipodi:cy="185.21933"
       sodipodi:rx="45.714287"
       sodipodi:ry="47.142857"
       d="m 182.85714,185.21933 a 45.714287,47.142857 0 1 1 -91.428574,0 45.714287,47.142857 0 1 1 91.428574,0 z" />
    <path
       sodipodi:type="arc"
       style="opacity:0.98000003999999996;fill:#b3b3b3;stroke-width:4;stroke-miterlimit:4;stroke-dasharray:none;stroke:#000000;stroke-opacity:1"
       id="path3771"
       sodipodi:cx="267.14285"
       sodipodi:cy="289.50504"
       sodipodi:rx="55.714287"
       sodipodi:ry="25.714285"
       d="m 322.85714,289.50504 a 55.714287,25.714285 0 1 1 -111.42857,0 55.714287,25.714285 0 1 1 111.42857,0 z" />
    <path
       sodipodi:type="spiral"
       style="fill:none;stroke:#000000;stroke-width:4;stroke-linecap:butt;stroke-linejoin:miter;stroke-opacity:1;stroke-miterlimit:4;stroke-dasharray:none"
       id="path3773"
       sodipodi:cx="274.28571"
       sodipodi:cy="535.2193"
       sodipodi:expansion="1"
       sodipodi:revolution="3"
       sodipodi:radius="48.57143"
       sodipodi:argument="-18.359598"
       sodipodi:t0="0"
       d="m 274.28571,535.2193 c 2.14878,1.14602 -0.48468,3.46193 -1.90477,3.57143 -3.84834,0.29673 -5.83307,-4.14415 -5.23809,-7.38096 1.06429,-5.78989 7.60332,-8.42037 12.85715,-6.90475 7.71019,2.22422 11.06533,11.10255 8.57142,18.33333 -3.324,9.63749 -14.61511,13.73374 -23.80953,10.23809 -11.57024,-4.39892 -16.41402,-18.1338 -11.90475,-29.28572 5.46133,-13.50648 21.65588,-19.10115 34.76191,-13.57142 15.445,6.51661 21.79257,25.18009 15.23808,40.23811 -7.56742,17.38507 -28.70571,24.48684 -45.7143,16.90474 -19.32623,-8.61527 -27.18312,-32.23233 -18.5714,-51.19049 9.66105,-21.26819 35.75966,-29.88086 56.66667,-20.23807 23.21075,10.70533 32.5797,39.28756 21.90474,62.14287" />
    <path
       sodipodi:type="spiral"
       style="fill:none;stroke:#000000;stroke-width:4;stroke-linecap:butt;stroke-linejoin:miter;stroke-opacity:1;stroke-miterlimit:4;stroke-dasharray:none"
       id="path3775"
       sodipodi:cx="422.85715"
       sodipodi:cy="112.36218"
       sodipodi:expansion="1"
       sodipodi:revolution="3"
       sodipodi:radius="65.2155"
       sodipodi:argument="-17.781603"
       sodipodi:t0="0"
       d="m 422.85715,112.36218 c 1.57578,2.86505 -3.0846,3.53764 -4.76191,2.61905 -4.54539,-2.48931 -3.51969,-8.9393 -0.47619,-12.14286 5.44412,-5.730402 14.72733,-3.891754 19.52381,1.66667 7.03903,8.15721 4.29929,20.6027 -3.80952,26.90476 -10.80777,8.39965 -26.51025,4.7234 -34.28572,-5.95238 -9.78463,-13.43438 -5.15639,-32.433405 8.09524,-41.666666 16.0495,-11.182716 38.36541,-5.594574 49.04762,10.238093 12.58861,18.658253 6.03603,44.302953 -12.38095,56.428573 -21.26313,13.99951 -50.24417,6.47966 -63.80953,-14.52381 -15.41381,-23.86547 -6.92481,-56.187981 16.66667,-71.190475 26.46607,-16.83053 62.13368,-7.371075 78.57143,18.80952 18.24902,29.065425 7.81816,68.080795 -20.95238,85.952385" />
    <path
       sodipodi:type="spiral"
       style="fill:none;stroke:#000000;stroke-width:4;stroke-linecap:butt;stroke-linejoin:miter;stroke-opacity:1;stroke-miterlimit:4;stroke-dasharray:none"
       id="path3777"
       sodipodi:cx="248.57143"
       sodipodi:cy="183.79076"
       sodipodi:expansion="1"
       sodipodi:revolution="3"
       sodipodi:radius="78.817795"
       sodipodi:argument="-18.038523"
       sodipodi:t0="0"
       d="m 248.57143,183.79076 c 2.7218,2.86505 -2.51919,5.08244 -4.76191,4.52381 -6.07761,-1.51387 -6.85947,-9.3683 -4.28572,-14.04762 4.60384,-8.3702 16.0197,-9.07189 23.33334,-4.04763 10.73305,7.37331 11.35259,22.7623 3.80953,32.61905 -10.05371,13.13749 -29.53742,13.66256 -41.90476,3.57144 -15.56304,-12.69865 -15.9877,-36.32806 -3.33335,-51.19047 15.32611,-18.00038 43.12745,-18.32163 60.47619,-3.09526 20.44488,17.94375 20.66107,49.9323 2.85717,69.7619 -20.55532,22.89406 -56.74079,23.0042 -79.04762,2.61908 -25.34644,-23.16288 -25.34991,-63.55184 -2.38099,-88.33333 25.76766,-27.8011 70.36475,-27.69748 97.61905,-2.1429 30.25743,28.37043 30.04645,77.17907 1.9048,106.90476" />
    <path
       sodipodi:type="spiral"
       style="fill:none;stroke:#000000;stroke-width:4;stroke-linecap:butt;stroke-linejoin:miter;stroke-opacity:1;stroke-miterlimit:4;stroke-dasharray:none"
       id="path3779"
       sodipodi:cx="322.85715"
       sodipodi:cy="295.21933"
       sodipodi:expansion="1"
       sodipodi:revolution="3"
       sodipodi:radius="79.43679"
       sodipodi:argument="-17.936647"
       sodipodi:t0="0"
       d="m 322.85715,295.21933 c 2.43529,3.15156 -3.04675,4.83759 -5.2381,4.04761 -5.93842,-2.14079 -5.91727,-10.09599 -2.85713,-14.52381 5.47386,-7.92031 16.99164,-7.45374 23.80952,-1.66664 10.00552,8.4928 9.04935,23.98573 0.47617,33.09523 -11.42671,12.14153 -31.01543,10.67095 -42.38095,-0.71432 -14.30236,-14.32719 -12.30617,-38.06223 1.9048,-51.66666 17.21139,-16.47679 45.11872,-13.94931 60.95237,3.09529 18.65942,20.08646 15.59742,52.18123 -4.28576,70.23809 -22.95593,20.84735 -59.24779,17.24884 -79.52381,-5.47626 -23.0389,-25.8217 -18.90259,-66.31716 6.66674,-88.80951 28.68492,-25.23302 73.3886,-20.55803 98.09523,7.85722 27.42904,31.54631 22.21472,80.46159 -9.04771,107.38094" />
    <path
       sodipodi:type="spiral"
       style="fill:none;stroke:#000000;stroke-width:4;stroke-linecap:butt;stroke-linejoin:miter;stroke-opacity:1;stroke-miterlimit:4;stroke-dasharray:none"
       id="path3781"
       sodipodi:cx="142.85715"
       sodipodi:cy="383.79074"
       sodipodi:expansion="1"
       sodipodi:revolution="3"
       sodipodi:radius="75.430733"
       sodipodi:argument="-18.419794"
       sodipodi:t0="0"
       d="m 142.85715,383.79074 c 3.43806,1.57578 -0.4279,5.41187 -2.61905,5.71429 -5.93787,0.81952 -9.42945,-5.87918 -8.80953,-10.95238 1.1089,-9.07477 10.99978,-13.76338 19.28571,-11.90477 12.15994,2.72759 18.19046,16.17708 15.00001,27.61904 -4.25236,15.25033 -21.37284,22.65511 -35.95237,18.09525 -18.34684,-5.73811 -27.13875,-26.577 -21.19049,-44.2857 7.20414,-21.44761 31.7858,-31.63333 52.61903,-24.28574 24.55125,8.65889 36.13475,36.99748 27.38098,60.95237 -10.10657,27.65687 -42.21108,40.64073 -69.2857,30.47622 -30.7639,-11.54956 -45.149912,-47.42604 -33.571459,-77.61903 12.989274,-33.87197 52.641989,-49.66142 85.952359,-36.6667 36.98083,14.4266 54.17468,57.85868 39.76195,94.28569" />
    <path
       sodipodi:type="spiral"
       style="fill:none;stroke:#000000;stroke-width:4;stroke-linecap:butt;stroke-linejoin:miter;stroke-opacity:1;stroke-miterlimit:4;stroke-dasharray:none"
       id="path3783"
       sodipodi:cx="431.42856"
       sodipodi:cy="369.50504"
       sodipodi:expansion="1"
       sodipodi:revolution="3"
       sodipodi:radius="143.56966"
       sodipodi:argument="-18.749887"
       sodipodi:t0="0"
       d="m 431.42856,369.50504 c 7.16263,0.71626 2.56828,10.00846 -1.19048,11.90476 -10.18599,5.13886 -20.60546,-4.76859 -22.61905,-14.28571 -3.60184,-17.02391 11.31488,-31.56808 27.38095,-33.33334 23.5776,-2.5906 42.73339,17.90581 44.04763,40.47618 1.75167,30.08276 -24.5068,53.97774 -53.57142,54.76192 -36.57486,0.98681 -65.26147,-31.11117 -65.47621,-66.66666 -0.26007,-43.06245 37.71717,-76.56774 79.7619,-76.19049 49.54825,0.44457 87.88811,44.32412 86.90478,92.85713 -1.1353,56.03328 -50.93172,99.2179 -105.95237,97.61907 -62.51795,-1.81669 -110.55428,-57.53979 -108.33336,-119.0476 2.49154,-69.00247 64.14822,-121.89546 132.14284,-119.04765 75.48692,3.16161 133.24024,70.75691 129.76194,145.23807" />
    <path
       sodipodi:type="star"
       style="opacity:0.98000004;fill:#333333;stroke:#000000;stroke-width:4;stroke-miterlimit:4;stroke-opacity:1;stroke-dasharray:none"
       id="path3789"
       sodipodi:sides="5"
       sodipodi:cx="271.42857"
       sodipodi:cy="380.93361"
       sodipodi:r1="51.507875"
       sodipodi:r2="25.753938"
       sodipodi:arg1="0.5880026"
       sodipodi:arg2="1.2163211"
       inkscape:flatsided="false"
       inkscape:rounded="0"
       inkscape:randomized="0"
       d="m 314.2857,409.50505 -33.91799,-4.41864 -22.86861,25.43583 -6.27886,-33.62336 -31.2577,-13.88923 30.03745,-16.36174 3.55028,-34.01985 24.84302,23.51125 33.4519,-7.13619 -14.68362,30.89249 z"
       inkscape:transform-center-x="4.3044392"
       inkscape:transform-center-y="0.64152709" />
    <path
       sodipodi:type="star"
       style="opacity:0.98000004;fill:#333333;stroke:#000000;stroke-width:4;stroke-miterlimit:4;stroke-opacity:1;stroke-dasharray:none"
       id="path3791"
       sodipodi:sides="5"
       sodipodi:cx="551.42859"
       sodipodi:cy="26.647898"
       sodipodi:r1="86.472832"
       sodipodi:r2="43.23642"
       sodipodi:arg1="1.7033479"
       sodipodi:arg2="2.3316664"
       inkscape:flatsided="false"
       inkscape:rounded="0"
       inkscape:randomized="0"
       d="m 540.00001,112.36218 -18.38517,-54.400897 -55.237,-15.695436 46.05699,-34.296145 -2.14192,-57.383664 46.84997,33.204714 53.91321,-19.769618 -17.10212,54.817787 35.46212,45.165367 -57.41966,0.674542 z"
       inkscape:transform-center-x="3.5316228"
       inkscape:transform-center-y="4.8262131"
       transform="translate(-102.85714,134.28571)" />
    <path
       sodipodi:type="star"
       style="opacity:0.98000004;fill:#333333;stroke:#000000;stroke-width:4;stroke-miterlimit:4;stroke-opacity:1;stroke-dasharray:none"
       id="path3793"
       sodipodi:sides="5"
       sodipodi:cx="354.28571"
       sodipodi:cy="286.6479"
       sodipodi:r1="67.430993"
       sodipodi:r2="33.715497"
       sodipodi:arg1="0.93576959"
       sodipodi:arg2="1.5640881"
       inkscape:flatsided="false"
       inkscape:rounded="0"
       inkscape:randomized="0"
       d="m 394.28571,340.9336 -39.77383,-20.57097 -39.49428,21.10273 7.27338,-44.18395 -32.2743,-31.04018 44.26903,-6.7362 19.54766,-40.28662 20.08639,40.02074 44.35541,6.14169 -31.85495,31.47038 z"
       inkscape:transform-center-x="0.13977998"
       inkscape:transform-center-y="-6.3060033" />
    <path
       sodipodi:type="star"
       style="opacity:0.98000004;fill:#333333;stroke:#000000;stroke-width:4;stroke-miterlimit:4;stroke-opacity:1;stroke-dasharray:none"
       id="path3795"
       sodipodi:sides="5"
       sodipodi:cx="100"
       sodipodi:cy="198.07647"
       sodipodi:r1="75.159694"
       sodipodi:r2="37.579848"
       sodipodi:arg1="-0.15264933"
       sodipodi:arg2="0.4756692"
       inkscape:flatsided="false"
       inkscape:rounded="0"
       inkscape:randomized="0"
       d="m 174.28571,186.64791 -40.87773,28.63764 0.41678,49.90921 -39.867926,-30.02751 -47.337691,15.81918 16.237998,-47.19567 -29.673089,-40.13242 49.903564,0.85899 28.998714,-40.62239 14.6041,47.72656 z"
       inkscape:transform-center-x="-3.7348816"
       inkscape:transform-center-y="-3.5316228" />
    <path
       sodipodi:type="star"
       style="opacity:0.98000004;fill:#333333;stroke:#000000;stroke-width:4;stroke-miterlimit:4;stroke-opacity:1;stroke-dasharray:none"
       id="path3797"
       sodipodi:sides="5"
       sodipodi:cx="480"
       sodipodi:cy="340.93361"
       sodipodi:r1="58.901509"
       sodipodi:r2="29.450755"
       sodipodi:arg1="1.1722739"
       sodipodi:arg2="1.8005924"
       inkscape:flatsided="false"
       inkscape:rounded="0"
       inkscape:randomized="0"
       d="m 502.85714,395.21934 -29.5654,-25.60914 -37.85728,9.83707 15.21953,-36.03203 -21.05415,-32.96459 38.97159,3.34012 24.8451,-30.2103 8.86624,38.09633 36.40926,14.2936 -33.49195,20.20471 z"
       inkscape:transform-center-x="-4.1459343"
       inkscape:transform-center-y="-1.5337213" />
    <path
       sodipodi:type="star"
       style="opacity:0.98000004;fill:#333333;stroke:#000000;stroke-width:4;stroke-miterlimit:4;stroke-opacity:1;stroke-dasharray:none"
       id="path3799"
       sodipodi:sides="5"
       sodipodi:cx="354.28571"
       sodipodi:cy="480.93361"
       sodipodi:r1="58.832172"
       sodipodi:r2="29.416087"
       sodipodi:arg1="1.0636978"
       sodipodi:arg2="1.6920164"
       inkscape:flatsided="false"
       inkscape:rounded="0"
       inkscape:randomized="0"
       d="m 382.85714,532.3622 -32.12853,-22.22835 -36.52532,13.86512 11.21215,-37.42498 -24.47346,-30.45309 39.05801,-0.90156 21.3999,-32.68617 12.92703,36.86778 37.69932,10.25193 -31.06867,23.68711 z"
       inkscape:transform-center-x="-2.1984039"
       inkscape:transform-center-y="-3.4859406" />
  </g>
</svg>
